<svg id="s_B" data-name="s_B" xmlns="http://www.w3.org/2000/svg" viewBox="0 0 100 100"><defs><style>.cls-1{isolation:isolate;}.cls-2,.cls-3,.cls-4,.cls-5,.cls-6{fill:none;stroke:#000;stroke-miterlimit:10;}.cls-2{stroke-width:9.3px;}.cls-3,.cls-4,.cls-5,.cls-6{stroke-width:0.77px;}.cls-4{stroke-dasharray:1.47 1.95 1.47 1.95;}.cls-5{stroke-dasharray:1.47 1.95 1.47 1.95 1.47 1.95;}.cls-6{stroke-dasharray:1.17 1.56 1.17 1.56;}</style></defs><g id="a" class="cls-1"><g class="cls-1"><path d="M5.76,44.45H7l5.13,11.34H10.71l-1.32-3H3.27l-1.34,3H.63Zm3.13,7.21L6.34,45.93,3.76,51.66Z"/></g></g><g id="a-2" data-name="a" class="cls-1"><g class="cls-1"><path d="M45.75,87.93h4.78a5,5,0,0,1,1.71.27,3.38,3.38,0,0,1,1.23.73,2.55,2.55,0,0,1,.72,1.81v0a3,3,0,0,1-.15,1,2.52,2.52,0,0,1-.41.74,2.85,2.85,0,0,1-.57.53,4.63,4.63,0,0,1-.65.36,5.14,5.14,0,0,1,.94.38,3.09,3.09,0,0,1,.76.55,2.43,2.43,0,0,1,.52.77,2.64,2.64,0,0,1,.19,1v0a2.85,2.85,0,0,1-.29,1.29,2.63,2.63,0,0,1-.83,1,3.84,3.84,0,0,1-1.29.6,6.21,6.21,0,0,1-1.67.21h-5Zm7.17,3a1.6,1.6,0,0,0-.64-1.34,2.91,2.91,0,0,0-1.85-.5H47V93h3.32a3.16,3.16,0,0,0,1.87-.51A1.74,1.74,0,0,0,52.92,91ZM53.55,96a1.6,1.6,0,0,0-.76-1.42,4,4,0,0,0-2.23-.51H47v4h3.77a3.43,3.43,0,0,0,2-.53A1.73,1.73,0,0,0,53.55,96Z"/></g></g><line class="cls-2" x1="24.12" y1="72.33" x2="76.96" y2="72.33"/><polyline class="cls-3" points="25.27 24.32 24.51 24.32 24.51 25.09"/><line class="cls-4" x1="24.51" y1="27.04" x2="24.51" y2="32.9"/><line class="cls-5" x1="24.51" y1="33.88" x2="24.51" y2="73.93"/><polyline class="cls-3" points="24.51 74.91 24.51 75.68 25.27 75.68"/><line class="cls-6" x1="26.83" y1="75.68" x2="31.51" y2="75.68"/><polyline class="cls-3" points="32.29 75.68 33.06 75.68 33.06 74.91"/><line class="cls-4" x1="33.06" y1="72.96" x2="33.06" y2="67.1"/><line class="cls-5" x1="33.06" y1="66.12" x2="33.06" y2="26.07"/><polyline class="cls-3" points="33.06 25.09 33.06 24.32 32.29 24.32"/><line class="cls-6" x1="30.73" y1="24.32" x2="26.05" y2="24.32"/></svg>