<svg id="u_A" data-name="u_A" xmlns="http://www.w3.org/2000/svg" viewBox="0 0 100 100"><defs><style>.cls-1,.cls-10,.cls-11,.cls-12,.cls-3,.cls-4,.cls-5,.cls-6,.cls-7,.cls-8,.cls-9{fill:none;stroke:#000;stroke-miterlimit:10;}.cls-1{stroke-width:9.3px;}.cls-2{isolation:isolate;}.cls-10,.cls-11,.cls-12,.cls-3,.cls-4,.cls-5,.cls-6,.cls-7,.cls-8,.cls-9{stroke-width:0.77px;}.cls-4{stroke-dasharray:1.55 2.07 1.55 2.07;}.cls-5{stroke-dasharray:1.55 2.07 1.55 2.07 1.55 2.07;}.cls-6{stroke-dasharray:1.53 2.04 1.53 2.04;}.cls-7{stroke-dasharray:1.53 2.04 1.53 2.04 1.53 2.04;}.cls-8{stroke-dasharray:1.17 1.56 1.17 1.56;}.cls-9{stroke-dasharray:1.47 1.95 1.47 1.95;}.cls-10{stroke-dasharray:1.47 1.95 1.47 1.95 1.47 1.95;}.cls-11{stroke-dasharray:1.49 1.98 1.49 1.98;}.cls-12{stroke-dasharray:1.49 1.98 1.49 1.98 1.49 1.98;}</style></defs><line class="cls-1" x1="28.21" y1="76.42" x2="28.21" y2="23.58"/><g id="a" class="cls-2"><g class="cls-2"><path d="M5.76,44.45H7l5.13,11.34H10.71l-1.32-3H3.27l-1.34,3H.63Zm3.13,7.21L6.34,45.93,3.76,51.66Z"/></g></g><g id="a-2" data-name="a" class="cls-2"><g class="cls-2"><path d="M45.75,87.93h4.78a5,5,0,0,1,1.71.27,3.38,3.38,0,0,1,1.23.73,2.55,2.55,0,0,1,.72,1.81v0a3,3,0,0,1-.15,1,2.52,2.52,0,0,1-.41.74,2.85,2.85,0,0,1-.57.53,4.63,4.63,0,0,1-.65.36,5.14,5.14,0,0,1,.94.38,3.09,3.09,0,0,1,.76.55,2.43,2.43,0,0,1,.52.77,2.64,2.64,0,0,1,.19,1v0a2.85,2.85,0,0,1-.29,1.29,2.63,2.63,0,0,1-.83,1,3.84,3.84,0,0,1-1.29.6,6.21,6.21,0,0,1-1.67.21h-5Zm7.17,3a1.6,1.6,0,0,0-.64-1.34,2.91,2.91,0,0,0-1.85-.5H47V93h3.32a3.16,3.16,0,0,0,1.87-.51A1.74,1.74,0,0,0,52.92,91ZM53.55,96a1.6,1.6,0,0,0-.76-1.42,4,4,0,0,0-2.23-.51H47v4h3.77a3.43,3.43,0,0,0,2-.53A1.73,1.73,0,0,0,53.55,96Z"/></g></g><polyline class="cls-3" points="68.14 23.96 67.36 23.96 67.36 24.73"/><line class="cls-4" x1="67.37" y1="26.8" x2="67.37" y2="33.02"/><line class="cls-5" x1="67.37" y1="34.06" x2="67.37" y2="65.67"/><polyline class="cls-3" points="67.36 66.71 67.36 67.48 66.6 67.48"/><line class="cls-6" x1="64.56" y1="67.48" x2="58.44" y2="67.48"/><line class="cls-7" x1="57.42" y1="67.48" x2="26.35" y2="67.48"/><polyline class="cls-3" points="25.33 67.48 24.56 67.48 24.56 68.25"/><line class="cls-8" x1="24.56" y1="69.81" x2="24.56" y2="74.49"/><polyline class="cls-3" points="24.56 75.27 24.56 76.04 25.33 76.04"/><line class="cls-9" x1="27.28" y1="76.04" x2="33.14" y2="76.04"/><line class="cls-10" x1="34.12" y1="76.04" x2="74.17" y2="76.04"/><polyline class="cls-3" points="75.15 76.04 75.92 76.04 75.92 75.32 75.92 75.27"/><polyline class="cls-11" points="75.92 73.28 75.92 67.48 75.92 67.34"/><line class="cls-12" x1="75.92" y1="66.35" x2="75.92" y2="25.72"/><polyline class="cls-3" points="75.92 24.73 75.92 23.96 75.15 23.96"/><line class="cls-8" x1="73.59" y1="23.96" x2="68.91" y2="23.96"/><g id="a-3" data-name="a" class="cls-2"><g class="cls-2"><path d="M94,56a5.58,5.58,0,0,1-2.25-.45A5.45,5.45,0,0,1,90,54.31a5.66,5.66,0,0,1-1.19-1.85,6.05,6.05,0,0,1-.42-2.26v0a6.08,6.08,0,0,1,.42-2.25A5.92,5.92,0,0,1,90,46.05a5.58,5.58,0,0,1,4.08-1.71,6.2,6.2,0,0,1,2.54.49,5.24,5.24,0,0,1,1,.57,8.41,8.41,0,0,1,.87.73l-.87.93A7.12,7.12,0,0,0,96.05,46a4.19,4.19,0,0,0-2-.43,4.12,4.12,0,0,0-1.73.35,4.28,4.28,0,0,0-1.39,1A4.61,4.61,0,0,0,90,48.32a5,5,0,0,0-.33,1.81v0A5,5,0,0,0,90,52,4.61,4.61,0,0,0,91,53.46a4.3,4.3,0,0,0,1.39,1,4.12,4.12,0,0,0,1.73.36,4.39,4.39,0,0,0,2-.42,7.29,7.29,0,0,0,1.64-1.2l.84.82a8.52,8.52,0,0,1-.91.81,5.91,5.91,0,0,1-1,.62,5.65,5.65,0,0,1-1.18.4A6,6,0,0,1,94,56Z"/></g></g></svg>