<svg id="sq_A" data-name="sq_A" xmlns="http://www.w3.org/2000/svg" viewBox="0 0 100 100"><defs><style>.cls-1{isolation:isolate;}.cls-2,.cls-3{fill:none;stroke:#000;}.cls-2,.cls-3,.cls-4{stroke-miterlimit:10;}.cls-2{stroke-width:0.79px;stroke-dasharray:1.58 2.11 1.58 2.11 1.58 2.11;}.cls-3,.cls-4{stroke-width:9.3px;}.cls-4{fill:#dadada;stroke:#b3b3b3;}</style></defs><g id="a" class="cls-1"><g class="cls-1"><path d="M45.75.63h4.78A5,5,0,0,1,52.24.9a3.25,3.25,0,0,1,1.23.73,2.51,2.51,0,0,1,.72,1.8v0a2.91,2.91,0,0,1-.15,1,2.52,2.52,0,0,1-.41.74,2.59,2.59,0,0,1-.57.53,3.86,3.86,0,0,1-.65.37,5.1,5.1,0,0,1,.94.37,3.12,3.12,0,0,1,.76.56,2.21,2.21,0,0,1,.51.76,2.47,2.47,0,0,1,.2,1v0a2.85,2.85,0,0,1-.29,1.29,2.74,2.74,0,0,1-.83,1,4,4,0,0,1-1.29.6,6.21,6.21,0,0,1-1.67.21h-5Zm7.17,3a1.61,1.61,0,0,0-.64-1.34,3,3,0,0,0-1.85-.5H47V5.66h3.32a3.16,3.16,0,0,0,1.87-.51,1.73,1.73,0,0,0,.71-1.51Zm.63,5.09a1.61,1.61,0,0,0-.76-1.42,4,4,0,0,0-2.23-.51H47v4h3.77a3.36,3.36,0,0,0,2-.54,1.71,1.71,0,0,0,.74-1.47Z"/></g></g><g id="a-2" data-name="a" class="cls-1"><g class="cls-1"><path d="M5.76,44.45H7l5.13,11.34H10.71l-1.32-3H3.27l-1.34,3H.63Zm3.13,7.21L6.34,45.93,3.76,51.66Z"/></g></g><g id="a-3" data-name="a" class="cls-1"><g class="cls-1"><path d="M93.05,44.45h1.19l5.13,11.34H98l-1.32-3H90.56l-1.34,3h-1.3Zm3.14,7.21-2.56-5.73-2.57,5.73Z"/></g></g><g id="a-4" data-name="a" class="cls-1"><g class="cls-1"><path d="M45.75,87.93h4.78a5,5,0,0,1,1.71.27,3.38,3.38,0,0,1,1.23.73,2.55,2.55,0,0,1,.72,1.81v0a3,3,0,0,1-.15,1,2.52,2.52,0,0,1-.41.74,2.85,2.85,0,0,1-.57.53,4.63,4.63,0,0,1-.65.36,5.14,5.14,0,0,1,.94.38,3.09,3.09,0,0,1,.76.55,2.25,2.25,0,0,1,.51.77,2.46,2.46,0,0,1,.2,1v0a2.85,2.85,0,0,1-.29,1.29,2.63,2.63,0,0,1-.83,1,3.84,3.84,0,0,1-1.29.6,6.21,6.21,0,0,1-1.67.21h-5Zm7.17,3a1.6,1.6,0,0,0-.64-1.34,2.91,2.91,0,0,0-1.85-.5H47V93h3.32a3.16,3.16,0,0,0,1.87-.51A1.74,1.74,0,0,0,52.92,91ZM53.55,96a1.62,1.62,0,0,0-.76-1.43,4.07,4.07,0,0,0-2.23-.5H47v4h3.77a3.43,3.43,0,0,0,2-.53A1.73,1.73,0,0,0,53.55,96Z"/></g></g><line class="cls-2" x1="34.54" y1="67.44" x2="67.64" y2="67.44"/><line class="cls-2" x1="34.59" y1="75.92" x2="67.69" y2="75.92"/><line class="cls-2" x1="34.54" y1="24.14" x2="67.64" y2="24.14"/><line class="cls-2" x1="34.59" y1="32.62" x2="67.69" y2="32.62"/><line class="cls-3" x1="28.21" y1="76.42" x2="28.21" y2="23.58"/><line class="cls-4" x1="71.79" y1="76.42" x2="71.79" y2="23.58"/></svg>