<svg id="s_A" data-name="s_A" xmlns="http://www.w3.org/2000/svg" viewBox="0 0 100 100"><defs><style>.cls-1,.cls-3,.cls-4,.cls-5,.cls-6{fill:none;stroke:#000;stroke-miterlimit:10;}.cls-1{stroke-width:9.3px;}.cls-2{isolation:isolate;}.cls-3,.cls-4,.cls-5,.cls-6{stroke-width:0.77px;}.cls-4{stroke-dasharray:1.47 1.95 1.47 1.95;}.cls-5{stroke-dasharray:1.47 1.95 1.47 1.95 1.47 1.95;}.cls-6{stroke-dasharray:1.17 1.56 1.17 1.56;}</style></defs><line class="cls-1" x1="28.21" y1="76.42" x2="28.21" y2="23.58"/><g id="a" class="cls-2"><g class="cls-2"><path d="M5.76,44.45H7l5.13,11.34H10.71l-1.32-3H3.27l-1.34,3H.63Zm3.13,7.21L6.34,45.93,3.76,51.66Z"/></g></g><g id="a-2" data-name="a" class="cls-2"><g class="cls-2"><path d="M45.75,87.93h4.78a5,5,0,0,1,1.71.27,3.38,3.38,0,0,1,1.23.73,2.55,2.55,0,0,1,.72,1.81v0a3,3,0,0,1-.15,1,2.52,2.52,0,0,1-.41.74,2.85,2.85,0,0,1-.57.53,4.63,4.63,0,0,1-.65.36,5.14,5.14,0,0,1,.94.38,3.09,3.09,0,0,1,.76.55,2.43,2.43,0,0,1,.52.77,2.64,2.64,0,0,1,.19,1v0a2.85,2.85,0,0,1-.29,1.29,2.63,2.63,0,0,1-.83,1,3.84,3.84,0,0,1-1.29.6,6.21,6.21,0,0,1-1.67.21h-5Zm7.17,3a1.6,1.6,0,0,0-.64-1.34,2.91,2.91,0,0,0-1.85-.5H47V93h3.32a3.16,3.16,0,0,0,1.87-.51A1.74,1.74,0,0,0,52.92,91ZM53.55,96a1.6,1.6,0,0,0-.76-1.42,4,4,0,0,0-2.23-.51H47v4h3.77a3.43,3.43,0,0,0,2-.53A1.73,1.73,0,0,0,53.55,96Z"/></g></g><polyline class="cls-3" points="76.22 75.27 76.22 76.04 75.45 76.04"/><line class="cls-4" x1="73.5" y1="76.04" x2="67.64" y2="76.04"/><line class="cls-5" x1="66.66" y1="76.04" x2="26.61" y2="76.04"/><polyline class="cls-3" points="25.63 76.04 24.86 76.04 24.86 75.27"/><line class="cls-6" x1="24.86" y1="73.71" x2="24.86" y2="69.03"/><polyline class="cls-3" points="24.86 68.25 24.86 67.48 25.63 67.48"/><line class="cls-4" x1="27.58" y1="67.48" x2="33.45" y2="67.48"/><line class="cls-5" x1="34.42" y1="67.48" x2="74.48" y2="67.48"/><polyline class="cls-3" points="75.45 67.48 76.22 67.48 76.22 68.25"/><line class="cls-6" x1="76.22" y1="69.81" x2="76.22" y2="74.49"/></svg>